<?xml version="1.0" standalone="no"?>
<!DOCTYPE svg PUBLIC "-//W3C//DTD SVG 20010904//EN"
 "http://www.w3.org/TR/2001/REC-SVG-20010904/DTD/svg10.dtd">
<svg version="1.0" xmlns="http://www.w3.org/2000/svg"
 width="413.000000pt" height="413.000000pt" viewBox="0 0 413.000000 413.000000"
 preserveAspectRatio="xMidYMid meet">
<metadata>
Created by potrace 1.14, written by Peter Selinger 2001-2017
</metadata>
<g transform="translate(0.000000,413.000000) scale(0.100000,-0.100000)"
fill="#000000" stroke="none">
<path d="M1591 3608 c-29 -51 -56 -100 -62 -108 -20 -32 -209 -362 -209 -365
0 -2 -13 -24 -30 -48 -16 -25 -30 -47 -30 -50 0 -3 -39 -72 -86 -154 -48 -81
-98 -168 -112 -193 -14 -25 -97 -168 -184 -318 -87 -151 -158 -276 -158 -279
0 -4 -6 -14 -14 -22 -7 -9 -25 -36 -38 -61 -14 -25 -76 -133 -138 -240 -141
-245 -145 -252 -171 -297 -12 -21 -64 -112 -117 -203 -52 -91 -105 -183 -117
-205 -13 -22 -46 -78 -73 -125 l-50 -85 538 -5 538 -5 -26 -47 c-15 -26 -57
-100 -94 -165 -37 -65 -79 -137 -93 -160 l-26 -43 1645 0 1644 0 -21 39 c-12
22 -44 77 -71 123 -26 45 -60 103 -74 128 -47 83 -272 475 -281 490 -10 15
-157 269 -177 305 -6 11 -62 108 -124 215 -62 107 -121 209 -130 225 -29 51
-125 217 -159 273 -17 29 -31 55 -31 58 0 3 -16 30 -35 60 -19 30 -35 56 -35
58 0 2 -27 51 -60 108 -33 56 -67 114 -75 128 -8 14 -94 163 -192 331 l-177
307 -26 -42 c-14 -22 -37 -62 -50 -88 -14 -27 -28 -48 -32 -48 -5 0 -8 -4 -8
-9 0 -5 -25 -53 -56 -107 -32 -55 -71 -124 -88 -154 -18 -30 -36 -54 -41 -52
-6 1 -19 19 -31 40 -23 40 -244 424 -339 587 -32 55 -82 143 -112 195 -30 52
-55 96 -57 97 -1 2 -26 -39 -55 -89z"/>
</g>
</svg>
